<?xml version="1.0" encoding="utf-8"?>
<!-- Generator: Adobe Illustrator 27.5.0, SVG Export Plug-In . SVG Version: 6.00 Build 0)  -->
<svg version="1.1" xmlns="http://www.w3.org/2000/svg" xmlns:xlink="http://www.w3.org/1999/xlink" x="0px" y="0px"
	 viewBox="0 0 500 500" style="enable-background:new 0 0 500 500;" xml:space="preserve">
<g id="Background_Complete">
	<g>
		<g id="background-complete--inject-1">
			<g>
				<rect y="382.4" style="fill:#EBEBEB;" width="500" height="0.25"/>
				<rect x="150.04" y="388.78" style="fill:#EBEBEB;" width="23.18" height="0.25"/>
				<rect x="402.1" y="394.14" style="fill:#EBEBEB;" width="56.67" height="0.25"/>
				<rect x="42.72" y="394.14" style="fill:#EBEBEB;" width="56.67" height="0.25"/>
				<path style="fill:#EBEBEB;" d="M237,337.8H43.91c-3.15-0.005-5.7-2.56-5.7-5.71V60.66c0.027-3.13,2.57-5.655,5.7-5.66H237
					c3.153,0,5.71,2.556,5.71,5.71l0,0v271.38C242.71,335.243,240.153,337.8,237,337.8z M43.91,55.2
					c-3.012,0.006-5.45,2.448-5.45,5.46v271.43c0,3.012,2.438,5.454,5.45,5.46H237c3.013-0.005,5.454-2.447,5.46-5.46V60.66
					c-0.006-3.013-2.447-5.454-5.46-5.46H43.91z"/>
				<path style="fill:#EBEBEB;" d="M453.31,337.8h-193.1c-3.151-0.005-5.704-2.559-5.71-5.71V60.66
					c0.033-3.132,2.578-5.655,5.71-5.66h193.1c3.126,0.011,5.663,2.534,5.69,5.66v271.43C459,335.236,456.456,337.789,453.31,337.8z
					 M260.21,55.2c-3.013,0.006-5.454,2.447-5.46,5.46v271.43c0.005,3.013,2.447,5.454,5.46,5.46h193.1
					c3.013-0.005,5.454-2.447,5.46-5.46V60.66c-0.005-3.013-2.447-5.454-5.46-5.46H260.21z"/>
			</g>
			<rect x="429.037" y="413.312" style="fill:#EBEBEB;" width="21.6" height="0.25"/>
			<g>
				<path style="fill:#E6E6E6;" d="M468.142,293.292c-2.091-5.994-18.586,2.161-25.23,12.088
					c-4.453,6.613-7.171,13.676-8.433,23.162c0.147-10.842,0.325-22.458,0.488-33.423c1.355-2.734,4.437-9.045,6.66-14.04
					c7.403-16.681,25.006-22.884,31.085-33.416c7.969-13.8,7.922-34.492,1.138-41.957c-5.893-6.49-25.416,37.388-27.615,42.29
					c-7.558,16.867-9.758,29.381-11.175,41.5c0.155-10.307,0.31-19.763,0.441-27.104c0.41-23.813,0.929-31.472,1.162-33.826
					c0.821-1.154,1.781-2.493,2.323-3.214c4.724-6.079,15.209-13.32,20.444-22.163c7.651-12.909,6.412-28.359,1.045-34.074
					c-5.607-6.017-15.527,8.201-20.785,22.287c-5.258,14.086-3.02,27.569-4.491,39.27c-0.31,2.323-0.627,11.012-0.929,23.101
					c-1.595-13.01-4.778-21.722-10.671-29.846c-7.256-9.99-13.513-22.148-19.492-20.576c-5.978,1.572-2.757,17.664,1.975,28.963
					c4.205,10.067,24.975,20.096,28.033,28.18c-0.356,16.386-0.682,37.172-0.914,56.477c-1.634-9.982-0.511-10.842-7.217-26.105
					c-3.988-9.091-20.344-20.297-22.287-14.048c-1.921,6.126,1.014,18.044,7.186,26.33c4.979,6.668,16.03,6.66,18.586,10.795
					c0.596,0.968,2.563,4.646,3.694,6.792c-0.271,23.596-0.387,44.428-0.256,51.529l1.069,0.07
					c-0.046-1.828,0.085-13.831,0.294-29.722c2.679-8.449,20.746-13.382,26.33-22.171
					C466.446,311.22,470.643,300.486,468.142,293.292z"/>
				<path style="fill:#E6E6E6;" d="M451.151,382.937h-34.662c-1.884-0.011-3.501-1.343-3.872-3.19l-2.463-12.135h47.393
					l-2.463,12.135C454.71,381.617,453.059,382.956,451.151,382.937z"/>
				<path style="fill:#F0F0F0;" d="M458.508,372.312h-49.376c-1.187,0.008-2.189-0.881-2.323-2.06l-1.014-8.968
					c-0.145-1.275,0.77-2.426,2.045-2.572c0.092-0.01,0.185-0.015,0.278-0.015h51.405c1.283-0.008,2.33,1.025,2.338,2.308
					c0.001,0.093-0.004,0.186-0.015,0.278l-1.022,8.952C460.697,371.419,459.698,372.315,458.508,372.312z"/>
			</g>
			<g>
				<rect x="52.908" y="89.008" style="fill:#E6E6E6;" width="69.802" height="76.636"/>
				<rect x="53.838" y="89.008" style="fill:#F5F5F5;" width="74.845" height="76.636"/>
				<rect x="58.611" y="93.781" style="fill:#FFFFFF;" width="65.299" height="67.09"/>
				<path style="fill:#F5F5F5;" d="M81.484,151.186L81.484,151.186c-7.778-7.771-7.784-20.377-0.013-28.155
					c0.004-0.004,0.008-0.008,0.013-0.013l19.552-19.552l0,0c7.774,7.78,7.774,20.388,0,28.168L81.484,151.186z"/>
			</g>
			<g>
				<rect x="53.938" y="206.06" style="fill:#E6E6E6;" width="47.51" height="53.62"/>
				<rect x="55.098" y="206.06" style="fill:#F5F5F5;" width="53.22" height="53.62"/>
				<rect x="60.598" y="211.55" style="fill:#FFFFFF;" width="42.24" height="42.65"/>
				<path style="fill:#F5F5F5;" d="M90.366,236.693l-4.844,4.844c-2.109,2.109-5.528,2.109-7.637,0l-4.844-4.844
					c-2.109-2.109-2.109-5.528,0-7.637l4.844-4.844c2.109-2.109,5.528-2.109,7.637,0l4.844,4.844
					C92.475,231.165,92.475,234.584,90.366,236.693z"/>
			</g>
		</g>
		<g>
			<rect x="184.208" y="273.043" style="fill:#E6E6E6;" width="21.648" height="109.213"/>
			<rect x="90.795" y="273.051" style="fill:#F0F0F0;" width="93.413" height="109.213"/>
			<rect x="99.305" y="315.063" style="fill:#E6E6E6;" width="76.392" height="25.174"/>
			<rect x="99.305" y="345.854" style="fill:#E6E6E6;" width="76.392" height="25.174"/>
			<path style="fill:#F0F0F0;" d="M128.924,318.438h17.155c1.162-0.004,2.103-0.945,2.108-2.108l0,0
				c0-1.165-0.942-2.111-2.108-2.116h-17.155c-1.165,0.004-2.108,0.95-2.108,2.116l0,0
				C126.821,317.493,127.762,318.434,128.924,318.438z"/>
			<rect x="99.305" y="284.279" style="fill:#E6E6E6;" width="76.392" height="25.174"/>
			<path style="fill:#F0F0F0;" d="M128.924,287.655h17.155c1.165-0.004,2.108-0.95,2.108-2.115l0,0
				c-0.004-1.162-0.945-2.103-2.108-2.108h-17.155c-1.162,0.004-2.103,0.946-2.108,2.108l0,0
				C126.816,286.704,127.759,287.65,128.924,287.655z"/>
			<path style="fill:#F0F0F0;" d="M128.924,349.23h17.155c1.165-0.004,2.108-0.95,2.108-2.116l0,0
				c-0.004-1.162-0.945-2.103-2.108-2.108h-17.155c-1.162,0.004-2.103,0.945-2.108,2.108l0,0
				C126.816,348.28,127.759,349.225,128.924,349.23z"/>
			<rect x="87.911" y="267.299" style="fill:#E6E6E6;" width="96.297" height="5.745"/>
			<rect x="184.208" y="267.307" style="fill:#E0E0E0;" width="24.674" height="5.745"/>
		</g>
	</g>
</g>
<g id="Background_Simple" style="display:none;">
	<g style="display:inline;">
		<path style="fill:#407BFF;" d="M250.417,165.531c36.387-22.666,63.632-66.233,112.114-64.931
			c36.408,0.967,57.604,30.253,65.554,64.157c20.905,89.038-91.07,167.038-168.783,184.166
			c-80.466,17.74-196.448-8.423-189.656-102.991c2.797-38.979,32.313-61.675,72.766-71.293
			C176.777,166.473,221.909,183.288,250.417,165.531z"/>
		<path style="opacity:0.9;fill:#FFFFFF;enable-background:new    ;" d="M250.417,165.531
			c36.387-22.666,63.632-66.233,112.114-64.931c36.408,0.967,57.604,30.253,65.554,64.157
			c20.905,89.038-91.07,167.038-168.783,184.166c-80.466,17.74-196.448-8.423-189.656-102.991
			c2.797-38.979,32.313-61.675,72.766-71.293C176.777,166.473,221.909,183.288,250.417,165.531z"/>
	</g>
</g>
<g id="Shadow">
	<ellipse style="fill:#F5F5F5;" cx="256.005" cy="432.822" rx="175.17" ry="13.825"/>
</g>
<g id="Mechanisms">
	<g>
		<g>
			<path style="fill:#407BFF;" d="M397.641,128.831c-1.444-4.772-3.353-9.39-5.702-13.788l0,0l3.553-11.627l-22.943-22.943
				l-11.639,3.565l0,0c-4.382-2.375-8.999-4.29-13.776-5.714l0,0l-5.701-10.732h-32.483l-5.714,10.732
				c-4.775,1.428-9.391,3.343-13.776,5.714l0,0l-11.627-3.565l-22.968,22.968l3.553,11.627l0,0
				c-2.359,4.393-4.269,9.012-5.702,13.788l-10.745,5.702v32.483l10.732,5.714l0,0c1.43,4.773,3.341,9.388,5.702,13.776l0,0
				l-3.553,11.615l22.968,22.968l11.627-3.553c4.389,2.363,9.009,4.27,13.788,5.689l5.714,10.745h32.483l5.701-10.732l0,0
				c4.773-1.435,9.389-3.349,13.776-5.714l11.639,3.553l22.968-22.968l-3.553-11.627l0,0c2.342-4.394,4.243-9.008,5.677-13.776l0,0
				l10.732-5.714v-32.483L397.641,128.831z M325.185,209.66c-32.525,0-58.892-26.367-58.892-58.892
				c0-32.525,26.367-58.892,58.892-58.892s58.892,26.367,58.892,58.892C384.076,183.293,357.71,209.66,325.185,209.66
				L325.185,209.66z"/>
			<path style="fill:#407BFF;" d="M325.185,100.137c-27.97,0.007-50.638,22.686-50.631,50.656s22.686,50.638,50.656,50.631
				c27.965-0.007,50.631-22.679,50.631-50.643C375.806,122.82,353.145,100.164,325.185,100.137z M325.185,194.679
				c-24.245,0.007-43.904-19.642-43.911-43.886c-0.007-24.245,19.642-43.904,43.886-43.911
				c24.245-0.007,43.904,19.641,43.911,43.886c0,0.004,0,0.008,0,0.012C369.043,175.009,349.413,194.645,325.185,194.679z"/>
			<path style="opacity:0.4;fill:#FFFFFF;" d="M397.641,128.831c-1.444-4.772-3.353-9.39-5.702-13.788l0,0l3.553-11.627
				l-22.943-22.943l-11.639,3.565l0,0c-4.382-2.375-8.999-4.29-13.776-5.714l0,0l-5.701-10.732h-32.483l-5.714,10.732
				c-4.775,1.428-9.391,3.343-13.776,5.714l0,0l-11.627-3.565l-22.968,22.968l3.553,11.627l0,0
				c-2.359,4.393-4.269,9.012-5.702,13.788l-10.745,5.702v32.483l10.732,5.714l0,0c1.43,4.773,3.341,9.388,5.702,13.776l0,0
				l-3.553,11.615l22.968,22.968l11.627-3.553c4.389,2.363,9.009,4.27,13.788,5.689l5.714,10.745h32.483l5.701-10.732l0,0
				c4.773-1.435,9.389-3.349,13.776-5.714l11.639,3.553l22.968-22.968l-3.553-11.627l0,0c2.342-4.394,4.243-9.008,5.677-13.776l0,0
				l10.732-5.714v-32.483L397.641,128.831z M325.185,209.66c-32.525,0-58.892-26.367-58.892-58.892
				c0-32.525,26.367-58.892,58.892-58.892s58.892,26.367,58.892,58.892C384.076,183.293,357.71,209.66,325.185,209.66
				L325.185,209.66z"/>
			<path style="opacity:0.4;fill:#FFFFFF;" d="M325.185,100.137c-27.97,0.007-50.638,22.686-50.631,50.656
				s22.686,50.638,50.656,50.631c27.965-0.007,50.631-22.679,50.631-50.643C375.806,122.82,353.145,100.164,325.185,100.137z
				 M325.185,194.679c-24.245,0.007-43.904-19.642-43.911-43.886c-0.007-24.245,19.642-43.904,43.886-43.911
				c24.245-0.007,43.904,19.641,43.911,43.886c0,0.004,0,0.008,0,0.012C369.043,175.009,349.413,194.645,325.185,194.679z"/>
		</g>
		<g>
			<path style="fill:#263238;" d="M193.317,193.119c-0.766-2.531-1.782-4.979-3.033-7.309l1.884-6.169l-12.178-12.187l-6.169,1.884
				c-2.33-1.251-4.778-2.267-7.309-3.033l-3.033-5.651h-17.235l-3.023,5.651c-2.531,0.764-4.98,1.78-7.309,3.033l-6.169-1.884
				l-12.187,12.187l1.884,6.169c-1.244,2.332-2.256,4.78-3.023,7.309l-5.698,3.033v17.236l5.698,3.023
				c0.765,2.53,1.778,4.978,3.023,7.309l-1.884,6.169l12.187,12.187l6.169-1.884c2.331,1.246,4.779,2.258,7.309,3.023l3.023,5.651
				h17.235l3.033-5.651c2.529-0.767,4.977-1.779,7.309-3.023l6.169,1.884l12.187-12.187l-1.884-6.169
				c1.253-2.329,2.269-4.777,3.033-7.309l5.698-3.023v-17.236L193.317,193.119z M154.862,229.248
				c-13.524,0-24.488-10.964-24.488-24.488s10.964-24.488,24.488-24.488c13.524,0,24.488,10.963,24.488,24.488
				S168.386,229.248,154.862,229.248L154.862,229.248z"/>
			<g>
				<path style="fill:#407BFF;" d="M193.317,193.119c-0.766-2.531-1.782-4.979-3.033-7.309l1.884-6.169l-12.178-12.187l-6.169,1.884
					c-2.33-1.251-4.778-2.267-7.309-3.033l-3.033-5.651h-17.235l-3.023,5.651c-2.531,0.764-4.98,1.78-7.309,3.033l-6.169-1.884
					l-12.187,12.187l1.884,6.169c-1.244,2.332-2.256,4.78-3.023,7.309l-5.698,3.033v17.236l5.698,3.023
					c0.765,2.53,1.778,4.978,3.023,7.309l-1.884,6.169l12.187,12.187l6.169-1.884c2.331,1.246,4.779,2.258,7.309,3.023l3.023,5.651
					h17.235l3.033-5.651c2.529-0.767,4.977-1.779,7.309-3.023l6.169,1.884l12.187-12.187l-1.884-6.169
					c1.253-2.329,2.269-4.777,3.033-7.309l5.698-3.023v-17.236L193.317,193.119z M154.862,229.248
					c-13.524,0-24.488-10.964-24.488-24.488s10.964-24.488,24.488-24.488c13.524,0,24.488,10.963,24.488,24.488
					S168.386,229.248,154.862,229.248L154.862,229.248z"/>
				<path style="fill:#263238;" d="M154.862,196.651c-4.484,0-8.119,3.635-8.119,8.119c0,4.484,3.635,8.119,8.119,8.119
					s8.119-3.635,8.119-8.119l0,0C162.98,200.286,159.346,196.651,154.862,196.651z"/>
				<path style="opacity:0.4;fill:#FFFFFF;" d="M193.317,193.119c-0.766-2.531-1.782-4.979-3.033-7.309l1.884-6.169l-12.178-12.187
					l-6.169,1.884c-2.33-1.251-4.778-2.267-7.309-3.033l-3.033-5.651h-17.235l-3.023,5.651c-2.531,0.764-4.98,1.78-7.309,3.033
					l-6.169-1.884l-12.187,12.187l1.884,6.169c-1.244,2.332-2.256,4.78-3.023,7.309l-5.698,3.033v17.236l5.698,3.023
					c0.765,2.53,1.778,4.978,3.023,7.309l-1.884,6.169l12.187,12.187l6.169-1.884c2.331,1.246,4.779,2.258,7.309,3.023l3.023,5.651
					h17.235l3.033-5.651c2.529-0.767,4.977-1.779,7.309-3.023l6.169,1.884l12.187-12.187l-1.884-6.169
					c1.253-2.329,2.269-4.777,3.033-7.309l5.698-3.023v-17.236L193.317,193.119z M154.862,229.248
					c-13.524,0-24.488-10.964-24.488-24.488s10.964-24.488,24.488-24.488c13.524,0,24.488,10.963,24.488,24.488
					S168.386,229.248,154.862,229.248L154.862,229.248z"/>
				<path style="opacity:0.2;fill:#FFFFFF;" d="M154.862,196.651c-4.484,0-8.119,3.635-8.119,8.119c0,4.484,3.635,8.119,8.119,8.119
					s8.119-3.635,8.119-8.119l0,0C162.98,200.286,159.346,196.651,154.862,196.651z"/>
			</g>
		</g>
		<g>
			<path style="fill:#263238;" d="M209.036,177.489l-6.593-2.722l-0.245-2.477c-0.615-0.522-1.188-1.092-1.714-1.705l-2.468-0.245
				l-2.722-6.593l1.582-1.884c-0.066-0.809-0.066-1.621,0-2.43l-1.582-1.884l2.722-6.593l2.468-0.235
				c0.528-0.613,1.101-1.186,1.714-1.714l0.245-2.468l6.593-2.722l1.884,1.582c0.809-0.066,1.621-0.066,2.43,0l1.884-1.582
				l6.593,2.722l0.235,2.468c0.613,0.528,1.186,1.101,1.714,1.714l2.468,0.235l2.722,6.593l-1.582,1.884
				c0.066,0.809,0.066,1.621,0,2.43l1.582,1.884l-2.722,6.593l-2.468,0.245c-0.523,0.617-1.097,1.191-1.714,1.714l-0.235,2.468
				l-6.593,2.722l-1.884-1.582c-0.805,0.066-1.615,0.066-2.421,0L209.036,177.489z M213.82,174.447l1.714,1.413l5.001-2.072
				l0.207-2.204l0.235-0.188c0.701-0.566,1.348-1.197,1.931-1.884l0.179-0.236l2.213-0.207l2.072-5.001l-1.413-1.714v-0.292
				c0.094-0.908,0.094-1.823,0-2.731v-0.292l1.413-1.714l-2.072-5.001l-2.204-0.207l-0.188-0.235
				c-0.583-0.687-1.23-1.318-1.931-1.884l-0.235-0.188l-0.207-2.204l-5.001-2.072l-1.714,1.413h-0.292
				c-0.908-0.094-1.823-0.094-2.731,0h-0.292l-1.714-1.413l-5.001,2.072l-0.207,2.204l-0.226,0.188
				c-0.706,0.563-1.356,1.194-1.94,1.884l-0.188,0.235l-2.204,0.207l-2.091,4.964l1.413,1.714v0.292
				c-0.094,0.908-0.094,1.823,0,2.731v0.292l-1.413,1.714l2.072,5.001l2.204,0.207l0.188,0.226c0.576,0.708,1.223,1.355,1.931,1.931
				l0.236,0.188l0.207,2.213l5.001,2.072l1.714-1.413h0.292c0.908,0.094,1.823,0.094,2.731,0L213.82,174.447z"/>
			<path style="fill:#263238;" d="M215.092,167.723c-3.907,1.619-8.386-0.236-10.005-4.143c-1.619-3.907,0.236-8.386,4.143-10.005
				c3.907-1.619,8.386,0.236,10.005,4.143c0,0.001,0.001,0.002,0.001,0.003c1.62,3.901-0.229,8.376-4.129,9.996
				C215.102,167.719,215.096,167.721,215.092,167.723z"/>
		</g>
		<g>
			<path style="fill:#407BFF;" d="M160.042,161.864c-0.26,0-0.471-0.211-0.471-0.471v-2.355c0-0.26,0.211-0.471,0.471-0.471
				c0.26,0,0.471,0.211,0.471,0.471v2.355C160.513,161.653,160.302,161.864,160.042,161.864z"/>
			<path style="fill:#407BFF;" d="M160.042,154.79c-0.26,0-0.471-0.211-0.471-0.471V149.6c0-0.26,0.211-0.471,0.471-0.471
				c0.26,0,0.471,0.211,0.471,0.471v4.719C160.513,154.58,160.302,154.79,160.042,154.79z M160.042,145.353
				c-0.26,0-0.471-0.211-0.471-0.471v-4.718c0-0.26,0.211-0.471,0.471-0.471c0.26,0,0.471,0.211,0.471,0.471v4.718
				C160.513,145.142,160.302,145.353,160.042,145.353z M160.042,135.915c-0.26,0-0.471-0.211-0.471-0.471v-4.719
				c0-0.26,0.211-0.471,0.471-0.471c0.26,0,0.471,0.211,0.471,0.471v4.719C160.513,135.705,160.302,135.915,160.042,135.915z
				 M160.042,126.445c-0.26,0-0.471-0.178-0.471-0.438v-0.065c0-1.619,0.267-3.208,0.793-4.722c0.086-0.246,0.355-0.375,0.599-0.29
				c0.246,0.085,0.376,0.354,0.29,0.599c-0.492,1.415-0.741,2.899-0.741,4.412C160.513,126.202,160.302,126.445,160.042,126.445z
				 M163.079,117.735c-0.103,0-0.206-0.034-0.293-0.103c-0.203-0.162-0.236-0.458-0.074-0.662c1.021-1.278,2.24-2.364,3.623-3.229
				c0.22-0.138,0.512-0.071,0.649,0.149c0.138,0.221,0.071,0.511-0.15,0.649c-1.293,0.808-2.432,1.824-3.387,3.019
				C163.354,117.674,163.217,117.735,163.079,117.735z M170.928,112.83c-0.216,0-0.411-0.149-0.46-0.369
				c-0.056-0.254,0.104-0.505,0.358-0.562c1.021-0.226,2.074-0.341,3.129-0.341h1.667c0.26,0,0.471,0.211,0.471,0.471
				s-0.211,0.471-0.471,0.471h-1.667c-0.986,0-1.97,0.107-2.924,0.319C170.996,112.827,170.961,112.83,170.928,112.83z
				 M251.121,112.5h-4.718c-0.26,0-0.471-0.211-0.471-0.471s0.211-0.471,0.471-0.471h4.718c0.26,0,0.47,0.211,0.47,0.471
				S251.382,112.5,251.121,112.5z M241.684,112.5h-4.719c-0.26,0-0.471-0.211-0.471-0.471s0.211-0.471,0.471-0.471h4.719
				c0.26,0,0.471,0.211,0.471,0.471S241.944,112.5,241.684,112.5z M232.246,112.5h-4.719c-0.26,0-0.471-0.211-0.471-0.471
				s0.211-0.471,0.471-0.471h4.719c0.26,0,0.471,0.211,0.471,0.471S232.507,112.5,232.246,112.5z M222.809,112.5h-4.718
				c-0.26,0-0.471-0.211-0.471-0.471s0.211-0.471,0.471-0.471h4.718c0.26,0,0.471,0.211,0.471,0.471S223.069,112.5,222.809,112.5z
				 M213.372,112.5h-4.719c-0.26,0-0.471-0.211-0.471-0.471s0.211-0.471,0.471-0.471h4.719c0.26,0,0.471,0.211,0.471,0.471
				S213.632,112.5,213.372,112.5z M203.934,112.5h-4.719c-0.26,0-0.471-0.211-0.471-0.471s0.211-0.471,0.471-0.471h4.719
				c0.26,0,0.471,0.211,0.471,0.471S204.194,112.5,203.934,112.5z M194.496,112.5h-4.718c-0.26,0-0.471-0.211-0.471-0.471
				s0.211-0.471,0.471-0.471h4.718c0.26,0,0.471,0.211,0.471,0.471S194.757,112.5,194.496,112.5z M185.059,112.5h-4.719
				c-0.26,0-0.471-0.211-0.471-0.471s0.211-0.471,0.471-0.471h4.719c0.26,0,0.471,0.211,0.471,0.471S185.319,112.5,185.059,112.5z"
				/>
			<path style="fill:#407BFF;" d="M258.209,112.5h-2.355c-0.26,0-0.471-0.211-0.471-0.471s0.211-0.471,0.471-0.471h2.355
				c0.26,0,0.471,0.211,0.471,0.471S258.469,112.5,258.209,112.5z"/>
		</g>
	</g>
</g>
<g id="Character">
	<g>
		
			<rect x="159.751" y="277.693" transform="matrix(-1 -1.224647e-16 1.224647e-16 -1 324.4351 709.456)" style="fill:#263238;" width="4.933" height="154.069"/>
		<g>
			<g>
				<path style="fill:#407BFF;" d="M281.458,346.806h81.417c2.048,0,3.708-1.66,3.708-3.708v-3.871c0-2.048-1.66-3.708-3.708-3.708
					h-81.417V346.806z"/>
				<g>
					
						<line style="fill:none;stroke:#407BFF;stroke-width:2.8255;stroke-linecap:round;stroke-linejoin:round;stroke-miterlimit:10;" x1="359.737" y1="432.621" x2="353.837" y2="339.367"/>
					
						<line style="fill:none;stroke:#407BFF;stroke-width:2.8255;stroke-linecap:round;stroke-linejoin:round;stroke-miterlimit:10;" x1="337.145" y1="437.245" x2="331.246" y2="343.99"/>
					
						<line style="fill:none;stroke:#407BFF;stroke-width:2.8255;stroke-linecap:round;stroke-linejoin:round;stroke-miterlimit:10;" x1="277.941" y1="432.621" x2="283.841" y2="339.367"/>
					
						<line style="fill:none;stroke:#407BFF;stroke-width:2.8255;stroke-linecap:round;stroke-linejoin:round;stroke-miterlimit:10;" x1="300.533" y1="437.245" x2="306.432" y2="343.99"/>
				</g>
				<g>
					<path style="fill:#407BFF;" d="M288.683,339.367H370.1c2.048,0,3.708-1.66,3.708-3.708v-3.871c0-2.048-1.66-3.708-3.708-3.708
						h-81.417V339.367z"/>
					<path style="opacity:0.2;" d="M288.683,339.367H370.1c2.048,0,3.708-1.66,3.708-3.708v-3.871c0-2.048-1.66-3.708-3.708-3.708
						h-81.417V339.367z"/>
				</g>
			</g>
			
				<rect x="288.096" y="281.375" transform="matrix(-1 -1.224647e-16 1.224647e-16 -1 581.1263 716.8181)" style="fill:#263238;" width="4.933" height="154.069"/>
			<g>
				<g>
					<g>
						<path style="fill:#263238;" d="M304.901,293.099c0,0-56.351,2.117-65.714,24.745c0,0,1.3,67.364,8.843,89.472l16.126-1.821
							l-2.579-65.512l58.291-46.884H304.901z"/>
						<path style="opacity:0.2;" d="M304.901,293.099c0,0-56.351,2.117-65.714,24.745c0,0,1.3,67.364,8.843,89.472l16.126-1.821
							l-2.579-65.512l58.291-46.884H304.901z"/>
					</g>
					<g>
						<g>
							<polygon style="fill:#B55B52;" points="261.485,422.349 251.421,422.349 251.285,415.643 251.183,410.385 261.016,410.982 
								261.212,415.643 							"/>
							<polygon style="opacity:0.2;" points="261.212,415.643 251.285,415.643 251.183,410.385 261.016,410.982 							"/>
						</g>
						<polygon style="fill:#407BFF;" points="265.987,412.52 244.433,413.172 240.498,405.171 265.395,404.941 						"/>
						<g>
							<path style="fill:none;stroke:#407BFF;stroke-width:0.9418;stroke-miterlimit:10;" d="M248.842,423.867
								c0,0,0.514-5.906-1.537-5.086C245.234,419.609,247.541,422.625,248.842,423.867z"/>
							<path style="fill:none;stroke:#407BFF;stroke-width:0.9418;stroke-miterlimit:10;" d="M248.842,423.867
								c0,0-4.435-3.095-5.559-1.518C242.16,423.926,248.842,423.867,248.842,423.867z"/>
						</g>
						<path style="fill:#263238;" d="M252.351,420.99l7.958,0.084c1.159,0.012,2.126,0.924,2.219,2.091l0.56,7.076
							c0.104,1.312-0.926,2.412-2.228,2.374c-4.331-0.125-13.243-0.36-16.399-0.268c-4.233,0.123-10.239,0.189-11.098-1.416
							c-0.859-1.605,0.508-2.66,0.508-2.66s11.525-1.069,16.832-6.551C251.141,421.268,251.72,420.983,252.351,420.99z"/>
					</g>
				</g>
				<path style="fill:#263238;" d="M355.463,293.099c0,0,1.063,13.134,0.664,23.284c-0.46,11.698-25.647,22.009-62.32,16.027
					c0,0-2.861,19.767-13.005,37.973c-10.144,18.207-26.009,45.256-26.009,45.256l-15.605-10.144c0,0,20.547-56.96,24.449-72.826
					c3.901-15.866,5.462-23.408,16.646-28.35c11.184-4.942,35.633-11.22,35.633-11.22H355.463z"/>
				<g>
					<g>
						<polygon style="fill:#B55B52;" points="248.842,412.657 246.993,415.503 242.92,421.775 235.106,417.216 239.204,410.859 
							240.789,408.397 						"/>
						<polygon style="opacity:0.2;" points="248.842,412.657 246.993,415.503 239.204,410.859 240.789,408.397 						"/>
					</g>
					<polygon style="fill:#407BFF;" points="258.87,410.385 238.422,398.137 235.106,406.309 254.524,417.517 					"/>
					<g>
						<path style="fill:none;stroke:#407BFF;stroke-width:0.9418;stroke-miterlimit:10;" d="M229.765,417.517
							c0,0,1.49-5.122-0.186-5.215C227.902,412.209,229.765,417.517,229.765,417.517z"/>
						<path style="fill:none;stroke:#407BFF;stroke-width:0.9418;stroke-miterlimit:10;" d="M229.367,417.331
							c0,0-2.303-5.56-4.165-4.316C223.34,414.258,229.367,417.331,229.367,417.331z"/>
					</g>
					<path style="fill:#263238;" d="M236.119,416.662l6.821,4.025c0.993,0.586,1.366,1.839,0.855,2.872l-3.099,6.267
						c-0.574,1.162-2.02,1.581-3.124,0.902c-3.671-2.257-11.238-6.884-14.007-8.374c-3.713-1.999-8.926-4.927-8.854-6.712
						c0.072-1.785,1.785-1.999,1.785-1.999s10.48,4.82,17.832,2.818C234.935,416.296,235.578,416.343,236.119,416.662z"/>
				</g>
			</g>
			<g>
				<path style="fill:#B55B52;" d="M292.156,235.725c0,0-2.095,22.936-1.252,28.839c0,0-21.924,3.204-33.055,1.686l-7.421-1.855
					l-9.276,2.263l2.53,7.35h7.42c0,0,5.397,1.518,7.758,0c0,0,18.551,3.71,29.513,2.53c10.962-1.181,14.357-5.349,14.841-13.661
					c0.465-7.987,5.738-25.818,1.521-29.866L292.156,235.725z"/>
				<path style="fill:#407BFF;" d="M367.437,238.297c0,0-8.407-21.356-16.59-26.182c-8.182-4.825-46.053,4.406-46.053,4.406
					s-16.255,5.232-17.186,30.621l14.931,6.33l2.361,39.627h50.562l-0.272-51.333L367.437,238.297z"/>
				<path style="fill:#263238;" d="M305.484,174.657c0,0-5.008-0.624-6.364-4.379c-1.356-3.755,3.857-1.857,3.42-8.636
					c-0.437-6.778,7.349-8.405,13.013-5.423c5.664,2.982,14.612-0.271,18.001,3.796c3.389,4.067,1.898,7.863,1.898,7.863
					s9.716,10.985-2.598,18.507C320.54,193.908,305.484,174.657,305.484,174.657z"/>
				<path style="fill:#B55B52;" d="M334.884,211.208c-5.402,8.231-10.259,9.083-16.778,9.075c-7.302-0.026-4.857-5.198-4.857-5.198
					c3.059-1.525,5.291-3.17,5.641-6.936c0.068-0.758,0.085-1.5,0.051-2.198c-0.119-2.803-0.869-4.976-0.869-4.976
					c-10.353,0.937-14-4.116-15.295-13.642c-1.287-9.526,3.059-17.05,3.059-17.05c5.999,7.055,17.289,1.525,17.289,1.525
					c-3.17,9.177,4.593,12.466,4.593,12.466c3.051-1.883,5.402-0.238,5.172,3.408c-0.239,3.647-3.408,4.593-3.408,4.593
					C328.894,208.499,334.884,211.208,334.884,211.208z"/>
				<g>
					<path style="fill:#263238;" d="M308.691,191.059c-0.169,0-0.31-0.132-0.319-0.303c-0.01-0.176,0.126-0.327,0.301-0.336
						c3.615-0.195,5.028-1.93,5.042-1.947c0.109-0.138,0.309-0.162,0.448-0.054c0.139,0.109,0.164,0.308,0.056,0.447
						c-0.062,0.081-1.583,1.98-5.51,2.192C308.703,191.059,308.697,191.059,308.691,191.059z"/>
				</g>
				<path style="fill:#A02724;" d="M308.691,187.119l-0.586-6.069l-2.621,5.518C305.484,186.567,306.863,187.809,308.691,187.119z"
					/>
				<path style="fill:#263238;" d="M312.726,181.05c0,0.762,0.355,1.379,0.793,1.379c0.438,0,0.793-0.618,0.793-1.379
					c0-0.762-0.355-1.379-0.793-1.379C313.081,179.67,312.726,180.288,312.726,181.05z"/>
				<path style="fill:#263238;" d="M303.898,181.05c0,0.762,0.355,1.379,0.793,1.379c0.438,0,0.793-0.618,0.793-1.379
					c0-0.762-0.355-1.379-0.793-1.379C304.253,179.67,303.898,180.288,303.898,181.05z"/>
				<g>
					<path style="fill:#263238;" d="M317.968,177.958c-0.133,0-0.265-0.063-0.348-0.18c-0.054-0.075-1.357-1.836-4.404-1.276
						c-0.229,0.044-0.453-0.11-0.496-0.342c-0.043-0.231,0.111-0.453,0.343-0.496c3.601-0.663,5.188,1.529,5.253,1.623
						c0.136,0.193,0.088,0.458-0.104,0.593C318.137,177.934,318.053,177.958,317.968,177.958z"/>
				</g>
				<g>
					<path style="fill:#263238;" d="M303.346,177.44c-0.066,0-0.131-0.015-0.194-0.047c-0.21-0.107-0.293-0.364-0.186-0.573
						c0.954-1.87,3.238-1.587,3.333-1.572c0.233,0.032,0.396,0.245,0.365,0.478c-0.031,0.233-0.247,0.399-0.478,0.367
						c-0.072-0.008-1.784-0.214-2.461,1.115C303.65,177.355,303.5,177.44,303.346,177.44z"/>
				</g>
				<g>
					<path style="fill:#FFFFFF;" d="M302.672,185.784c-2.61,0-4.734-2.124-4.734-4.734c0-2.61,2.124-4.734,4.734-4.734
						c2.61,0,4.735,2.124,4.735,4.734C307.407,183.66,305.283,185.784,302.672,185.784z M302.672,176.955
						c-2.257,0-4.095,1.837-4.095,4.095c0,2.258,1.837,4.095,4.095,4.095c2.258,0,4.096-1.837,4.096-4.095
						C306.768,178.792,304.931,176.955,302.672,176.955z"/>
				</g>
				<g>
					<path style="fill:#FFFFFF;" d="M313.967,185.784c-2.61,0-4.734-2.124-4.734-4.734c0-2.61,2.124-4.734,4.734-4.734
						c2.61,0,4.735,2.124,4.735,4.734C318.702,183.66,316.577,185.784,313.967,185.784z M313.967,176.955
						c-2.258,0-4.095,1.837-4.095,4.095c0,2.258,1.837,4.095,4.095,4.095c2.258,0,4.096-1.837,4.096-4.095
						C318.063,178.792,316.225,176.955,313.967,176.955z"/>
				</g>
				
					<line style="fill:none;stroke:#FFFFFF;stroke-width:0.9418;stroke-miterlimit:10;" x1="307.407" y1="181.05" x2="309.233" y2="181.05"/>
				
					<line style="fill:none;stroke:#FFFFFF;stroke-width:0.9418;stroke-linecap:round;stroke-linejoin:round;stroke-miterlimit:10;" x1="318.394" y1="181.916" x2="327.258" y2="184.046"/>
				<path style="opacity:0.2;" d="M321.498,200.037c0,0-0.92,3.502-2.556,5.914c-0.119-2.803-0.869-4.976-0.869-4.976
					L321.498,200.037z"/>
				<polygon style="opacity:0.2;" points="302.54,253.472 302.539,247.142 299.982,252.387 				"/>
				<polygon style="opacity:0.2;" points="344.272,245.022 342.321,233.627 341.77,246.025 				"/>
				<path style="fill:#B55B52;" d="M358.223,268.921c-0.128,8.325-3.877,12.483-14.844,13.659
					c-10.958,1.184-29.508-2.531-29.508-2.531c-2.36,1.525-7.762,0-7.762,0h-7.422l-2.522-7.345l9.271-2.267l7.422,1.858
					c11.128,1.517,33.053-1.687,33.053-1.687c-0.631-4.422-1.34-18.845-1.638-25.585l13.077-3.868
					C358.636,249.948,358.334,261.737,358.223,268.921z"/>
			</g>
			<g>
				<path style="fill:#407BFF;" d="M164.766,225.416l8.858,45.11c0.396,2.018,2.165,3.473,4.221,3.473h74.931
					c2.678,0,4.705-2.42,4.235-5.057l-8.04-45.11c-0.366-2.052-2.151-3.547-4.235-3.547h-75.749
					C166.279,220.285,164.244,222.758,164.766,225.416z"/>
				<path style="opacity:0.2;" d="M245.874,220.285l9.361,53.714l0,0c1.397,0,2.454-1.262,2.209-2.637l-8.774-49.226
					c-0.191-1.07-1.121-1.85-2.209-1.85H245.874z"/>
				<path style="fill:#407BFF;" d="M174.505,278.306H289.74c0-1.187-0.487-2.268-1.263-3.044c-0.776-0.776-1.857-1.263-3.044-1.263
					H178.827C176.438,273.999,174.505,275.932,174.505,278.306z"/>
				<path style="opacity:0.2;" d="M251.673,278.306h38.067c0-1.187-0.487-2.268-1.263-3.044c-0.776-0.776-1.857-1.263-3.044-1.263
					h-29.437C253.606,273.999,251.673,275.932,251.673,278.306z"/>
				<path style="opacity:0.4;fill:#FFFFFF;" d="M201.731,248.819c0.806,5.615,4.687,9.703,8.668,9.131
					c3.981-0.572,6.555-5.586,5.749-11.201c-0.806-5.614-4.686-9.703-8.667-9.131C203.498,238.19,200.925,243.205,201.731,248.819z"
					/>
				<path style="opacity:0.2;" d="M174.505,278.306H289.74c0-1.187-0.487-2.268-1.263-3.044c-0.776-0.776-1.857-1.263-3.044-1.263
					H178.827C176.438,273.999,174.505,275.932,174.505,278.306z"/>
			</g>
			<path style="fill:#263238;" d="M127.303,283.893h198.998l0,0c0-3.934-3.189-7.123-7.123-7.123H134.426
				C130.492,276.77,127.303,279.959,127.303,283.893L127.303,283.893z"/>
		</g>
	</g>
</g>
</svg>
